<svg width="16" height="16" viewBox="0 0 16 16" fill="none" xmlns="http://www.w3.org/2000/svg">
<path fill-rule="evenodd" clip-rule="evenodd" d="M2 0C0.895 0 0 0.8954 0 2V4C0 5.1046 0.895 6 2 6H4C5.105 6 6 5.1046 6 4V2C6 0.8954 5.105 0 4 0H2ZM12 0C10.895 0 10 0.8954 10 2V4C10 5.1046 10.895 6 12 6H14C15.105 6 16 5.1046 16 4V2C16 0.8954 15.105 0 14 0H12ZM0 12C0 10.8954 0.895 10 2 10H4C5.105 10 6 10.8954 6 12V14C6 15.1046 5.105 16 4 16H2C0.895 16 0 15.1046 0 14V12ZM12 10C10.895 10 10 10.8954 10 12V14C10 15.1046 10.895 16 12 16H14C15.105 16 16 15.1046 16 14V12C16 10.8954 15.105 10 14 10H12Z" fill="#8AA6C1"/>
</svg>
